<svg width="22" height="23" viewBox="0 0 22 23" fill="none" xmlns="http://www.w3.org/2000/svg">
<path d="M2 10C1.17157 10 0.5 10.6716 0.5 11.5C0.5 12.3284 1.17157 13 2 13V10ZM21.5607 12.5607C22.1464 11.9749 22.1464 11.0251 21.5607 10.4393L12.0147 0.893398C11.4289 0.307612 10.4792 0.307612 9.8934 0.893398C9.30761 1.47918 9.30761 2.42893 9.8934 3.01472L18.3787 11.5L9.8934 19.9853C9.30761 20.5711 9.30761 21.5208 9.8934 22.1066C10.4792 22.6924 11.4289 22.6924 12.0147 22.1066L21.5607 12.5607ZM2 13H20.5V10H2V13Z" fill="black"/>
</svg>
