<svg width="38" height="38" viewBox="0 0 38 38" fill="none" xmlns="http://www.w3.org/2000/svg">
<path d="M19 3.42475C24.073 3.42475 24.6747 3.44375 26.6792 3.53558C31.8282 3.76992 34.2332 6.213 34.4676 11.324C34.5594 13.3269 34.5768 13.9286 34.5768 19.0016C34.5768 24.0762 34.5578 24.6763 34.4676 26.6792C34.2317 31.7854 31.8329 34.2332 26.6792 34.4676C24.6747 34.5594 24.0762 34.5784 19 34.5784C13.927 34.5784 13.3253 34.5594 11.3224 34.4676C6.16075 34.2317 3.76833 31.7775 3.534 26.6776C3.44217 24.6747 3.42317 24.0746 3.42317 19C3.42317 13.927 3.44375 13.3269 3.534 11.3224C3.76992 6.213 6.16867 3.76833 11.3224 3.534C13.3269 3.44375 13.927 3.42475 19 3.42475ZM19 0C13.8399 0 13.1939 0.0221667 11.1673 0.114C4.26708 0.430667 0.43225 4.25917 0.115583 11.1657C0.0221667 13.1939 0 13.8399 0 19C0 24.1601 0.0221667 24.8077 0.114 26.8343C0.430667 33.7345 4.25917 37.5693 11.1657 37.886C13.1939 37.9778 13.8399 38 19 38C24.1601 38 24.8077 37.9778 26.8343 37.886C33.7282 37.5693 37.5725 33.7408 37.8844 26.8343C37.9778 24.8077 38 24.1601 38 19C38 13.8399 37.9778 13.1939 37.886 11.1673C37.5757 4.27342 33.7424 0.43225 26.8359 0.115583C24.8077 0.0221667 24.1601 0 19 0ZM19 9.2435C13.6119 9.2435 9.2435 13.6119 9.2435 19C9.2435 24.3881 13.6119 28.7581 19 28.7581C24.3881 28.7581 28.7565 24.3897 28.7565 19C28.7565 13.6119 24.3881 9.2435 19 9.2435ZM19 25.3333C15.5024 25.3333 12.6667 22.4992 12.6667 19C12.6667 15.5024 15.5024 12.6667 19 12.6667C22.4976 12.6667 25.3333 15.5024 25.3333 19C25.3333 22.4992 22.4976 25.3333 19 25.3333ZM29.1428 6.57875C27.8825 6.57875 26.8613 7.6 26.8613 8.85875C26.8613 10.1175 27.8825 11.1388 29.1428 11.1388C30.4016 11.1388 31.4212 10.1175 31.4212 8.85875C31.4212 7.6 30.4016 6.57875 29.1428 6.57875Z" fill="black"/>
</svg>
